C:\Users\israe\Dropbox\PhDWork\ExperimentalData\subject9\145\P9S145W07_filtered35.mot
nRows=18
nColumns=28

name C:\Users\israe\Dropbox\PhDWork\ExperimentalData\subject9\145\P9S145W07_filtered35.mot
datacolumns 28
datarows 18
range 1.1150000000 1.1320000000
endheader
time	ground_force_1_vx	ground_force_1_vy	ground_force_1_vz	ground_force_1_px	ground_force_1_py	ground_force_1_pz	ground_moment_1_mx	ground_moment_1_my	ground_moment_1_mz	ground_force_2_vx	ground_force_2_vy	ground_force_2_vz	ground_force_2_px	ground_force_2_py	ground_force_2_pz	ground_moment_2_mx	ground_moment_2_my	ground_moment_2_mz	ground_force_3_vx	ground_force_3_vy	ground_force_3_vz	ground_force_3_px	ground_force_3_py	ground_force_3_pz	ground_moment_3_mx	ground_moment_3_my	ground_moment_3_mz
        1.1150000000	       -0.0000000000	        0.0000000000	       -0.0000000000	        0.1988394961	        0.0000558755	       -0.3004071324	       -0.0000000000	       -0.0000000000	        0.0000000000	       34.9610831724	      910.5004765181	      212.4020998622	        0.2029003516	       -0.0000795827	        0.4543649445	      -20.3651945540	       22.8388015128	      -73.7548994639	        1.8598625640	       59.7493896751	        1.2109631000	        0.2076431971	        0.0000770316	        1.3583900146	       15.3618861095	       -1.4492319574	        4.2748060190	
        1.1160000000	       -0.0000000000	        0.0000000000	       -0.0000000000	        0.1988394961	        0.0000558755	       -0.3004071324	       -0.0000000000	       -0.0000000000	        0.0000000000	       34.2775755443	      903.8350873845	      212.9677721518	        0.2029003516	       -0.0000795827	        0.4543649445	      -20.5614131728	       22.8554828427	      -73.1280375521	        2.7601872869	       76.5213568963	       -0.9085278924	        0.2076431971	        0.0000770316	        1.3583900146	       19.8936274828	       -1.6365594295	        5.5181722287	
        1.1170000000	       -0.0000000000	        0.0000000000	       -0.0000000000	        0.1988394961	        0.0000558755	       -0.3004071324	       -0.0000000000	       -0.0000000000	        0.0000000000	       33.5594677032	      896.9172394619	      213.4832814112	        0.2029003516	       -0.0000795827	        0.4543649445	      -20.7590199938	       22.8690200459	      -72.4786833396	        3.8149075275	       94.8921211370	       -3.8772361153	        0.2076431971	        0.0000770316	        1.3583900146	       24.8993862183	       -1.7835063567	        6.8872649649	
        1.1180000000	        0.0000000000	        0.0000000000	       -0.0000000000	        0.1988394961	        0.0000558755	       -0.3004071324	       -0.0000000000	       -0.0000000000	        0.0000000000	       32.8077912953	      889.7480231105	      213.9454746148	        0.2029003516	       -0.0000795827	        0.4543649445	      -20.9576863227	       22.8789835439	      -71.8065830034	        5.0016960283	      114.5830503716	       -7.7608330502	        0.2076431971	        0.0000770316	        1.3583900146	       30.3022145124	       -1.8769289088	        8.3603359988	
        1.1190000000	        0.0000000000	        0.0000000000	       -0.0000000000	        0.1988394961	        0.0000558755	       -0.3004071324	       -0.0000000000	       -0.0000000000	       -0.0000000000	       32.0247360316	      882.3334792611	      214.3481012323	        0.2029003516	       -0.0000795827	        0.4543649445	      -21.1568536983	       22.8845039756	      -71.1118244054	        6.2915343981	      135.3025028941	      -12.5727276622	        0.2076431971	        0.0000770316	        1.3583900146	       36.0195137225	       -1.9076511918	        9.9151633080	
        1.1200000000	        0.0000000000	        0.0000000000	        0.0000000000	        0.1988394961	        0.0000558755	       -0.3004071324	        0.0000000000	       -0.0000000000	       -0.0000000000	       31.2134959334	      874.6844390681	      214.6833880964	        0.2029003516	       -0.0000795827	        0.4543649445	      -21.3556022117	       22.8843924455	      -70.3947500614	        7.6523863580	      156.7645882761	      -18.2700086574	        0.2076431971	        0.0000770316	        1.3583900146	       41.9697493770	       -1.8709792510	       11.5310190873	
        1.1210000000	        0.0000000000	        0.0000000000	        0.0000000000	        0.1988394961	        0.0000558755	       -0.3004071324	        0.0000000000	       -0.0000000000	       -0.0000000000	       30.3782977351	      866.8122606310	      214.9430390259	        0.2029003516	       -0.0000795827	        0.4543649445	      -21.5526748907	       22.8771594571	      -69.6557314625	        9.0505372958	      178.7080163740	      -24.7575267727	        0.2076431971	        0.0000770316	        1.3583900146	       48.0776055406	       -1.7665772042	       13.1896688762	
        1.1220000000	        0.0000000000	        0.0000000000	        0.0000000000	        0.1988394961	        0.0000558755	       -0.3004071324	        0.0000000000	        0.0000000000	       -0.0000000000	       29.5238768752	      858.7254071771	      215.1179671382	        0.2029003516	       -0.0000795827	        0.4543649445	      -21.7466977414	       22.8610804046	      -68.8952375410	       10.4527579747	      200.9109452092	      -31.8972905265	        0.2076431971	        0.0000770316	        1.3583900146	       54.2772504555	       -1.5981135726	       14.8758031339	
        1.1230000000	        0.0000000000	        0.0000000000	        0.0000000000	        0.1988394961	        0.0000558755	       -0.3004071324	        0.0000000000	        0.0000000000	       -0.0000000000	       28.6546106439	      850.4287339124	      215.1989805372	        0.2029003516	       -0.0000795827	        0.4543649445	      -21.9363464713	       22.8344174242	      -68.1140813280	       11.8285062067	      223.1999476661	      -39.5166211970	        0.2076431971	        0.0000770316	        1.3583900146	       60.5143689048	       -1.3726329818	       16.5771857867	
        1.1240000000	        0.0000000000	        0.0000000000	        0.0000000000	        0.1988394961	        0.0000558755	       -0.3004071324	        0.0000000000	        0.0000000000	       -0.0000000000	       27.7743069660	      841.9247973531	      215.1779235544	        0.2029003516	       -0.0000795827	        0.4543649445	      -22.1205608202	       22.7955378324	      -67.3134831627	       13.1504358724	      245.4511214644	      -47.4170897019	        0.2076431971	        0.0000770316	        1.3583900146	       66.7469602092	       -1.0998313123	       18.2845310513	
        1.1250000000	        0.0000000000	        0.0000000000	        0.0000000000	        0.1988394961	        0.0000558755	       -0.3004071324	        0.0000000000	        0.0000000000	       -0.0000000000	       26.8860049695	      833.2161282767	      215.0469932204	        0.2029003516	       -0.0000795827	        0.4543649445	      -22.2986538109	       22.7429054760	      -66.4949080622	       14.3955270882	      267.5835634768	      -55.3857544806	        0.2076431971	        0.0000770316	        1.3583900146	       72.9444943529	       -0.7914402110	       19.9912447020	
        1.1260000000	        0.0000000000	        0.0000000000	        0.0000000000	        0.1988394961	        0.0000558755	       -0.3004071324	        0.0000000000	        0.0000000000	       -0.0000000000	       25.9918745900	      824.3060138811	      214.7980392248	        0.2029003516	       -0.0000795827	        0.4543649445	      -22.4700994350	       22.6750354556	      -65.6598379000	       15.5457328954	      289.5494433560	      -63.2069293298	        0.2076431971	        0.0000770316	        1.3583900146	       79.0859010990	       -0.4602850083	       21.6930449194	
        1.1270000000	        0.0000000000	        0.0000000000	        0.0000000000	        0.1988394961	        0.0000558755	       -0.3004071324	        0.0000000000	        0.0000000000	       -0.0000000000	       25.0941358518	      815.1968776660	      214.4233608929	        0.2029003516	       -0.0000795827	        0.4543649445	      -22.6344505313	       22.5905214707	      -64.8095577262	       16.5859423116	      311.3231183691	      -70.6745576009	        0.2076431971	        0.0000770316	        1.3583900146	       85.1569994996	       -0.1190743527	       23.3873732881	
        1.1280000000	        0.0000000000	        0.0000000000	        0.0000000000	        0.1988394961	        0.0000558755	       -0.3004071324	        0.0000000000	        0.0000000000	       -0.0000000000	       24.1953635268	      805.8903386901	      213.9158782292	        0.2029003516	       -0.0000795827	        0.4543649445	      -22.7915185893	       22.4881978768	      -63.9451008350	       17.5022874157	      332.8890809239	      -77.6041870690	        0.2076431971	        0.0000770316	        1.3583900146	       91.1475785482	        0.2208284370	       25.0725843224	
        1.1290000000	        0.0000000000	        0.0000000000	        0.0000000000	        0.1988394961	        0.0000558755	       -0.3004071324	        0.0000000000	        0.0000000000	       -0.0000000000	       23.2975548097	      796.3900882002	      213.2690753301	        0.2029003516	       -0.0000795827	        0.4543649445	      -22.9413713014	       22.3672226638	      -63.0674751781	       18.2818304675	      354.2315129849	      -83.8428474094	        0.2076431971	        0.0000770316	        1.3583900146	       97.0488079045	        0.5505991249	       26.7470853748	
        1.1300000000	        0.0000000000	        0.0000000000	        0.0000000000	        0.1988394961	        0.0000558755	       -0.3004071324	        0.0000000000	        0.0000000000	       -0.0000000000	       22.4022370022	      786.7029581762	      212.4782505618	        0.2029003516	       -0.0000795827	        0.4543649445	      -23.0841791016	       22.2270879902	      -62.1778195580	       18.9116409896	      375.3282884956	      -89.2764915209	        0.2076431971	        0.0000770316	        1.3583900146	      102.8514043485	        0.8646008858	       28.4087233138	
        1.1310000000	        0.0000000000	        0.0000000000	        0.0000000000	        0.1988394961	        0.0000558755	       -0.3004071324	        0.0000000000	        0.0000000000	       -0.0000000000	       21.5111475316	      776.8370028269	      211.5413520776	        0.2029003516	       -0.0000795827	        0.4543649445	      -23.2201008317	       22.0676975655	      -61.2771886918	       19.3786675834	      396.1477225045	      -93.8346080139	        0.2076431971	        0.0000770316	        1.3583900146	      108.5443649621	        1.1603524940	       30.0544035653	
        1.1320000000	        0.0000000000	        0.0000000000	        0.0000000000	        0.1988394961	        0.0000558755	       -0.3004071324	        0.0000000000	        0.0000000000	       -0.0000000000	       20.6259316837	      766.7995030726	      210.4591101640	        0.2029003516	       -0.0000795827	        0.4543649445	      -23.3492414969	       21.8893518626	      -60.3663440413	       19.6710286072	      416.6461364940	      -97.4913944787	        0.2076431971	        0.0000770316	        1.3583900146	      114.1144555054	        1.4381149841	       31.6799803613	
